<svg width="256" height="256" viewBox="0 0 256 256" xmlns="http://www.w3.org/2000/svg">
  <defs>
    <linearGradient id="goldStroke" x1="0" y1="0" x2="0" y2="1">
      <stop offset="0" stop-color="#F7D77A"/>
      <stop offset="0.55" stop-color="#D4AF37"/>
      <stop offset="1" stop-color="#9B7826"/>
    </linearGradient>
    <linearGradient id="faceTop" x1="0" y1="0" x2="1" y2="0">
      <stop offset="0" stop-color="#F8E197"/>
      <stop offset="0.55" stop-color="#D9B33E"/>
      <stop offset="1" stop-color="#A67E27"/>
    </linearGradient>
    <linearGradient id="faceFront" x1="0" y1="0" x2="0" y2="1">
      <stop offset="0" stop-color="#F2CD67"/>
      <stop offset="0.55" stop-color="#C9992E"/>
      <stop offset="1" stop-color="#89641E"/>
    </linearGradient>
    <linearGradient id="faceSide" x1="0" y1="0" x2="1" y2="1">
      <stop offset="0" stop-color="#C9992E"/>
      <stop offset="1" stop-color="#6F4F18"/>
    </linearGradient>
    <linearGradient id="edgeHi" x1="0" y1="0" x2="1" y2="1">
      <stop offset="0" stop-color="#FFF2C2" stop-opacity="0.95"/>
      <stop offset="1" stop-color="#E6BE59" stop-opacity="0.25"/>
    </linearGradient>
    <filter id="soft" x="-20%" y="-20%" width="140%" height="140%">
      <feDropShadow dx="0" dy="4" stdDeviation="6" flood-color="#000" flood-opacity="0.5"/>
    </filter>
  </defs>

  <g transform="translate(28, 28)">
    <path d="M100 0 L20 40 V100 C20 150 60 190 100 200 C140 190 180 150 180 100 V40 Z"
          fill="none"
          stroke="url(#goldStroke)"
          stroke-width="14"
          stroke-linejoin="round"
          filter="url(#soft)"/>

    <g filter="url(#soft)" transform="translate(0, 5)">
       <polygon points="50,60 140,60 130,75 40,75" fill="url(#faceTop)"/>
       <polygon points="140,60 150,65 140,80 130,75" fill="url(#faceSide)"/>
       <polygon points="40,75 130,75 120,85 30,85" fill="url(#faceFront)"/>
       <polyline points="50,60 140,60 130,75 40,75 50,60" fill="none" stroke="url(#edgeHi)" stroke-width="1.5"/>

       <polygon points="140,80 150,65 100,125 90,140 130,75" fill="url(#faceSide)"/>
       <polygon points="120,85 90,125 80,125 110,85" fill="url(#faceFront)"/>

       <polygon points="60,125 150,125 140,140 50,140" fill="url(#faceTop)"/>
       <polygon points="50,140 140,140 120,160 100,170 80,160 60,150" fill="url(#faceFront)"/>
       <polyline points="60,125 150,125 140,140 50,140 60,125" fill="none" stroke="url(#edgeHi)" stroke-width="1.5"/>
    </g>
  </g>
</svg>